<svg width="128" height="128" viewBox="0 0 128 128" fill="none" xmlns="http://www.w3.org/2000/svg" role="img" aria-labelledby="logo-title">
  <title id="logo-title">Логотип Миллиардар</title>
  <rect x="10" y="10" width="108" height="108" rx="54" fill="#171717"/>
  <path d="M34 36.5C34 32.9 36.9 30 40.5 30H87.5C91.1 30 94 32.9 94 36.5V91.5C94 95.1 91.1 98 87.5 98H40.5C36.9 98 34 95.1 34 91.5V36.5Z" fill="#FBFAF7"/>
  <path d="M44 31.5V88.5C44 93.7 48.3 98 53.5 98H40.5C36.9 98 34 95.1 34 91.5V36.5C34 32.9 36.9 30 40.5 30H53.5C48.3 30 44 34.3 44 39.5" fill="#DFE4DF"/>
  <path d="M54 43H78" stroke="#171717" stroke-width="5" stroke-linecap="round"/>
  <path d="M54 55H84" stroke="#171717" stroke-width="4" stroke-linecap="round"/>
  <path d="M54 67H84" stroke="#171717" stroke-width="4" stroke-linecap="round"/>
  <path d="M54 80C60.5 85.8 75.5 85.8 82 80" stroke="#171717" stroke-width="4" stroke-linecap="round"/>
  <circle cx="60" cy="76" r="2.6" fill="#171717"/>
  <circle cx="76" cy="76" r="2.6" fill="#171717"/>
</svg>
